<mxfile host="65bd71144e">
    <diagram id="cSjFqxzvFbNxvDYxCNbE" name="Page-1">
        <mxGraphModel dx="940" dy="557" grid="1" gridSize="10" guides="1" tooltips="1" connect="1" arrows="1" fold="1" page="1" pageScale="1" pageWidth="827" pageHeight="1169" math="0" shadow="0">
            <root>
                <mxCell id="0"/>
                <mxCell id="1" parent="0"/>
                <mxCell id="2" value="" style="html=1;verticalLabelPosition=bottom;labelBackgroundColor=#ffffff;verticalAlign=top;shadow=0;dashed=0;strokeWidth=1;shape=mxgraph.ios7.misc.iphone;strokeColor=#c0c0c0;" vertex="1" parent="1">
                    <mxGeometry x="260" y="20" width="250" height="800" as="geometry"/>
                </mxCell>
                <mxCell id="3" value="IMG" style="rounded=0;whiteSpace=wrap;html=1;" vertex="1" parent="1">
                    <mxGeometry x="280" y="165" width="80" height="70" as="geometry"/>
                </mxCell>
                <mxCell id="4" value="MY INFO" style="rounded=1;whiteSpace=wrap;html=1;" vertex="1" parent="1">
                    <mxGeometry x="370" y="170" width="120" height="60" as="geometry"/>
                </mxCell>
                <mxCell id="5" value="ABOUT/HOBBIES" style="rounded=0;whiteSpace=wrap;html=1;" vertex="1" parent="1">
                    <mxGeometry x="280" y="250" width="210" height="70" as="geometry"/>
                </mxCell>
                <mxCell id="6" value="WORK&amp;nbsp;EXPERIENCE&amp;nbsp;" style="rounded=0;whiteSpace=wrap;html=1;" vertex="1" parent="1">
                    <mxGeometry x="280" y="400" width="210" height="110" as="geometry"/>
                </mxCell>
                <mxCell id="7" value="SKILLS" style="rounded=0;whiteSpace=wrap;html=1;" vertex="1" parent="1">
                    <mxGeometry x="280" y="330" width="210" height="60" as="geometry"/>
                </mxCell>
                <mxCell id="8" value="EDUCATION" style="rounded=0;whiteSpace=wrap;html=1;" vertex="1" parent="1">
                    <mxGeometry x="280" y="520" width="210" height="110" as="geometry"/>
                </mxCell>
                <mxCell id="9" value="FOOTER" style="rounded=1;whiteSpace=wrap;html=1;" vertex="1" parent="1">
                    <mxGeometry x="280" y="650" width="200" height="40" as="geometry"/>
                </mxCell>
            </root>
        </mxGraphModel>
    </diagram>
</mxfile>